<svg width="165" height="22" viewBox="0 0 165 22" fill="none" xmlns="http://www.w3.org/2000/svg">
<g clip-path="url(#clip0_38577_369823)">
<mask id="mask0_38577_369823" style="mask-type:alpha" maskUnits="userSpaceOnUse" x="0" y="0" width="165" height="22">
<rect width="165" height="22" fill="#D9D9D9"/>
</mask>
<g mask="url(#mask0_38577_369823)">
<path d="M136.969 7.6895C136.969 7.86922 136.969 8.04252 136.969 8.22224C136.969 10.5587 136.969 12.8887 136.969 15.2251C136.969 15.822 136.629 16.2328 136.051 16.3804C135.57 16.5024 135.005 16.2906 134.755 15.8349C134.652 15.6551 134.594 15.4241 134.594 15.2187C134.588 11.5279 134.588 7.83071 134.588 4.13994C134.588 3.63287 134.813 3.2734 135.249 3.04233C135.737 2.792 136.218 2.79843 136.674 3.11937C136.822 3.22207 136.944 3.36968 137.066 3.50448C139.28 6.05271 141.488 8.60096 143.702 11.1428C143.837 11.3032 143.985 11.4509 144.229 11.7205C144.248 11.3674 144.261 11.1749 144.261 10.9887C144.261 8.70365 144.254 6.42501 144.267 4.13994C144.274 3.17072 145.153 2.59303 146 2.99099C146.456 3.2028 146.674 3.57509 146.674 4.07575C146.681 4.78181 146.681 5.48786 146.681 6.19392C146.681 9.1337 146.687 12.0671 146.674 15.0068C146.668 16.1044 145.654 16.7527 144.742 16.2585C144.498 16.1237 144.299 15.9055 144.113 15.6937C141.886 13.139 139.671 10.5715 137.451 8.01043C137.341 7.88848 137.226 7.77294 137.117 7.65099C137.059 7.66383 137.014 7.67666 136.969 7.6895Z" fill="#6256B1"/>
<path d="M81.2637 9.7503C81.2701 5.82846 84.3062 2.88226 88.3435 2.88868C92.214 2.8951 95.0254 5.73217 95.0254 9.62192C95.019 13.486 91.9252 16.4386 87.8814 16.4322C84.0687 16.4258 81.2637 13.5887 81.2637 9.7503ZM88.1189 13.9738C90.5516 13.9738 92.3103 12.1702 92.3167 9.66686C92.3231 7.17639 90.5516 5.34707 88.1253 5.34707C85.7247 5.34707 83.9595 7.15714 83.9531 9.62834C83.9467 12.1381 85.7054 13.9738 88.1189 13.9738Z" fill="#6256B1"/>
<path d="M154.461 9.82788C154.461 8.11408 154.461 6.4003 154.461 4.6865C154.461 3.80071 154.974 3.29362 155.873 3.29362C158.396 3.28721 160.912 3.29362 163.434 3.29362C164.262 3.29362 164.795 3.76861 164.802 4.50035C164.808 5.26418 164.282 5.74558 163.421 5.74558C161.489 5.74558 159.557 5.75841 157.625 5.73916C157.202 5.73274 157.016 5.82903 157.048 6.29118C157.086 6.87528 157.073 7.4658 157.048 8.05633C157.035 8.42861 157.157 8.55056 157.536 8.54414C159.281 8.52488 161.027 8.53131 162.773 8.53773C163.351 8.53773 163.832 8.88433 163.973 9.36573C164.128 9.86639 163.986 10.4441 163.556 10.7137C163.306 10.8741 162.966 10.9704 162.671 10.9768C160.976 11.0025 159.275 11.0025 157.58 10.9768C157.157 10.9704 157.022 11.1052 157.041 11.516C157.073 12.1386 157.073 12.7612 157.041 13.3774C157.016 13.8267 157.138 13.9872 157.625 13.9808C159.609 13.9551 161.592 13.968 163.569 13.968C164.448 13.968 164.988 14.4237 165.001 15.1683C165.013 15.9385 164.468 16.4199 163.569 16.4199C161.034 16.4199 158.498 16.4199 155.963 16.4199C154.936 16.4199 154.467 15.9449 154.467 14.9115C154.461 13.2234 154.461 11.5288 154.461 9.82788Z" fill="#6256B1"/>
<path d="M115.412 13.1522C114.642 13.1522 113.865 13.1715 113.095 13.1458C112.697 13.133 112.453 13.2421 112.292 13.6465C112.016 14.3269 111.683 14.988 111.362 15.6491C111.022 16.3552 110.36 16.6119 109.699 16.3103C109.045 16.0086 108.807 15.3475 109.147 14.6221C110.842 10.9763 112.543 7.33046 114.244 3.68463C114.494 3.14545 114.956 2.88872 115.54 2.89514C116.118 2.90156 116.574 3.14546 116.83 3.69105C118.519 7.30479 120.213 10.9121 121.888 14.5323C122.216 15.2383 121.946 15.9572 121.285 16.2782C120.598 16.6184 119.867 16.3809 119.501 15.6684C119.193 15.0586 118.884 14.436 118.634 13.8005C118.442 13.3063 118.166 13.1009 117.62 13.1394C116.888 13.1843 116.15 13.1522 115.412 13.1522ZM113.512 10.9185C114.828 10.9185 116.041 10.9185 117.344 10.9185C116.709 9.54494 116.099 8.2291 115.431 6.78488C114.764 8.21626 114.154 9.52568 113.512 10.9185Z" fill="#6256B1"/>
<path d="M123.485 9.76342C123.485 7.96618 123.479 6.16894 123.485 4.3717C123.485 3.71699 123.915 3.22275 124.557 3.10721C125.128 2.99809 125.77 3.3383 125.982 3.90315C126.059 4.11496 126.072 4.35886 126.072 4.58993C126.078 7.51045 126.091 10.431 126.066 13.3579C126.059 13.8843 126.22 13.9998 126.72 13.9934C128.434 13.9613 130.148 13.9805 131.862 13.9805C132.747 13.9805 133.261 14.4298 133.261 15.2001C133.261 15.9768 132.754 16.4325 131.875 16.4325C129.577 16.4325 127.272 16.4325 124.974 16.4325C123.979 16.4325 123.498 15.9447 123.498 14.9562C123.479 13.2231 123.485 11.4901 123.485 9.76342Z" fill="#6256B1"/>
<path d="M71.4931 9.76342C71.4931 7.96618 71.4867 6.16894 71.4931 4.3717C71.4931 3.71699 71.9231 3.22275 72.565 3.10721C73.1363 2.99809 73.7781 3.3383 73.9899 3.90315C74.067 4.11496 74.0798 4.35886 74.0798 4.58993C74.0862 7.51045 74.0991 10.431 74.0734 13.3579C74.067 13.8843 74.2275 13.9998 74.7281 13.9934C76.4419 13.9613 78.1557 13.9805 79.8695 13.9805C80.7553 13.9805 81.2688 14.4298 81.2688 15.2001C81.2688 15.9768 80.7617 16.4325 79.8823 16.4325C77.5844 16.4325 75.2801 16.4325 72.9822 16.4325C71.9873 16.4325 71.5059 15.9447 71.5059 14.9562C71.4931 13.2231 71.4931 11.4901 71.4931 9.76342Z" fill="#6256B1"/>
<path d="M151.771 9.67967C151.771 11.4898 151.777 13.3063 151.765 15.1163C151.765 15.7646 151.411 16.2011 150.815 16.3744C150.263 16.5349 149.659 16.3423 149.37 15.8416C149.242 15.6234 149.165 15.341 149.165 15.0842C149.152 11.4769 149.152 7.86959 149.159 4.26226C149.159 3.44067 149.704 2.89507 150.449 2.89507C151.219 2.88865 151.765 3.45992 151.765 4.29435C151.777 6.09159 151.771 7.88243 151.771 9.67967Z" fill="#6256B1"/>
<path d="M101.604 10.9124C100.866 11.7084 100.166 12.4529 99.4856 13.2168C99.3894 13.3195 99.3701 13.5184 99.3701 13.6725C99.3573 14.1282 99.3701 14.5839 99.3637 15.0461C99.3444 15.7393 98.7796 16.2592 98.0799 16.2464C97.3995 16.2336 96.8539 15.7201 96.8539 15.0461C96.8475 11.4516 96.8475 7.86354 96.8539 4.26905C96.8539 3.59508 97.4124 3.08802 98.0927 3.0816C98.7924 3.07518 99.3573 3.59509 99.3573 4.29473C99.3701 5.95718 99.3637 7.62605 99.3637 9.2885C99.3637 9.4618 99.3637 9.62868 99.3637 9.80199C99.4279 9.8405 99.492 9.88543 99.5562 9.92395C99.6974 9.73138 99.8194 9.526 99.9799 9.35911C101.764 7.4335 103.555 5.50788 105.34 3.58226C105.648 3.24849 106.001 3.04308 106.456 3.08801C106.886 3.12652 107.252 3.31268 107.406 3.74273C107.586 4.23055 107.56 4.70552 107.188 5.1099C106.373 5.99569 105.545 6.88148 104.73 7.76726C104.409 8.11387 104.101 8.47331 103.754 8.80067C103.523 9.01891 103.529 9.18579 103.722 9.42329C104.133 9.91111 104.518 10.4182 104.909 10.9189C105.429 11.5864 105.391 12.4658 104.826 12.8894C104.248 13.3259 103.414 13.1718 102.888 12.5171C102.47 11.9972 102.053 11.4773 101.604 10.9124Z" fill="#6256B1"/>
<path d="M107.869 14.8399C107.856 15.6102 107.188 16.2585 106.412 16.252C105.635 16.2456 104.987 15.5845 104.987 14.8143C104.987 14.0183 105.674 13.3508 106.463 13.3764C107.246 13.3957 107.882 14.0633 107.869 14.8399Z" fill="#6256B1"/>
<path d="M59.6366 16.7778C61.4916 16.7714 63.2567 15.969 64.3672 14.4606C65.131 13.4144 65.4905 12.0986 65.4905 10.8148C65.4905 9.53106 65.131 8.21523 64.3672 7.16898C63.2632 5.66058 61.4916 4.85823 59.6366 4.85181C57.7816 4.85823 56.0164 5.66058 54.906 7.16898C54.1422 8.21523 53.7827 9.53106 53.7827 10.8148C53.7827 12.0986 54.1422 13.4208 54.906 14.4606C56.0164 15.969 57.7816 16.7714 59.6366 16.7778ZM56.7802 9.44119C57.2103 8.15745 58.2245 7.13688 59.6366 7.13047C61.0423 7.13688 62.0629 8.16386 62.4929 9.44119C62.6277 9.85199 62.7176 10.3462 62.7176 10.8084C62.7176 11.2705 62.6277 11.7712 62.4929 12.1756C62.0629 13.4593 61.0423 14.4799 59.6366 14.4927C58.2245 14.4863 57.2103 13.4593 56.7802 12.1756C56.6455 11.7648 56.5556 11.2705 56.5556 10.8084C56.5492 10.3462 56.6455 9.84557 56.7802 9.44119Z" fill="#FF5A00"/>
<path d="M17.1361 16.8235H19.1002C19.2863 16.8235 19.4404 16.6694 19.4404 16.4833V0.340192C19.4404 0.154049 19.2863 0 19.1002 0H17.1361C16.9499 0 16.7959 0.154049 16.7959 0.340192V16.4833C16.7959 16.6694 16.9435 16.8235 17.1361 16.8235Z" fill="#FF5A00"/>
<path d="M12.5218 16.8235H14.4859C14.6721 16.8235 14.8262 16.6694 14.8262 16.4833V0.340192C14.8262 0.154049 14.6721 0 14.4859 0H12.5218C12.3357 0 12.1816 0.154049 12.1816 0.340192V16.4833C12.1816 16.6694 12.3357 16.8235 12.5218 16.8235Z" fill="#FF5A00"/>
<path d="M46.9867 16.823H48.9509C49.137 16.823 49.2911 16.669 49.2911 16.4828V9.89081C49.2911 7.83682 50.6519 6.84834 52.8727 7.31049C53.1423 7.36826 53.3413 7.22704 53.3349 6.91894V5.53892C53.3349 5.18589 53.3028 5.05109 53.0396 4.97407C52.6802 4.87778 51.8906 4.8457 51.6788 4.8457C50.2474 4.8457 48.9701 5.41696 48.0844 6.29632C47.4361 6.94461 46.6401 7.95236 46.6401 9.71751V16.4828C46.6466 16.669 46.8006 16.823 46.9867 16.823Z" fill="#FF5A00"/>
<path d="M39.0763 16.7781C40.2894 16.7717 41.4704 16.4251 42.4461 15.7639V17.2082C42.4461 19.1659 40.7323 19.5253 39.6347 19.5895C38.903 19.6344 37.8503 19.5317 37.3817 19.4611C37.08 19.4162 36.8682 19.4676 36.8682 19.7821V21.5215C36.8618 21.6499 36.9645 21.7847 37.1763 21.804C39.7181 22.0222 41.4319 21.9773 42.7221 21.2455C43.64 20.7256 44.269 19.8655 44.5963 18.8578C44.8403 18.1325 44.9237 17.2467 44.9237 16.47V10.8087C44.9237 9.50568 44.5771 8.22836 43.8004 7.16285C42.6964 5.65445 40.9248 4.85212 39.0698 4.8457C37.2148 4.85212 35.4497 5.65445 34.3392 7.16285C32.8244 9.22968 32.8244 12.3877 34.3392 14.4609C35.4561 15.9693 37.2277 16.7717 39.0763 16.7781ZM36.2263 9.44149C36.65 8.15775 37.6705 7.13077 39.0826 7.13077C42.2407 7.13077 42.3434 10.353 42.3434 10.8151C42.3434 11.2773 42.2407 14.4995 39.0826 14.4995C37.6705 14.4995 36.65 13.466 36.2263 12.1823C36.0851 11.7715 35.9952 11.2773 35.9952 10.8151C35.9952 10.3465 36.0851 9.84587 36.2263 9.44149Z" fill="#FF5A00"/>
<path d="M26.81 16.7778C28.6971 16.8484 29.9552 16.5211 30.8987 15.9755C31.0849 15.8664 31.1234 15.738 31.1234 15.3978V13.8765C31.1234 13.562 30.9373 13.4208 30.642 13.607C29.6214 14.2552 28.4018 14.6532 26.8421 14.5313C25.2695 14.4093 23.9729 13.3053 23.851 11.7519H31.6048C31.7781 11.7519 31.9129 11.6236 31.9193 11.4374C32.0477 9.31283 31.4379 4.85181 26.6624 4.85181C23.1706 4.85181 21.6622 7.19465 21.1487 9.17804C21.0139 9.70438 20.9497 10.2692 20.9497 10.8148C20.9497 12.0986 21.3092 13.4144 22.073 14.4606C23.1898 15.969 24.9614 16.7072 26.81 16.7778ZM26.6688 7.13047C27.8113 7.13047 29.1529 7.78516 29.1529 9.6466H23.8703C23.8767 8.78007 24.602 7.13047 26.6688 7.13047Z" fill="#FF5A00"/>
<path d="M1.21953 15.9498C1.97053 16.5403 2.99752 16.8227 4.26843 16.8227H5.19273H10.0453C10.2314 16.8227 10.3855 16.6687 10.3855 16.4825V13.1384V9.63377C10.3855 8.07401 10.0389 6.87371 9.28788 6.07779C8.51121 5.24977 7.03491 4.85181 5.64205 4.85181C4.2556 4.85181 2.82424 5.21125 1.64319 5.91089C1.56617 5.95582 1.52123 6.03928 1.52123 6.12915V6.14198L1.62392 7.86219C1.64317 8.09326 1.91278 8.17029 2.1246 8.04191C3.8384 6.97641 5.89238 6.78385 6.93222 7.30376C7.66395 7.66963 7.85651 8.45272 7.85651 8.95338V9.2037H4.99375C3.76777 9.2037 0 9.64018 0 13.1191V13.1384V13.1576V13.1769C0.00641873 14.3579 0.410775 15.3208 1.21953 15.9498ZM5.15422 11.2962H7.86294V13.1384V14.6981H5.19915H4.44175C3.99244 14.6725 3.59447 14.5505 3.2286 14.2745C2.83706 13.9728 2.65732 13.6198 2.65732 13.1512C2.65732 13.1448 2.65732 13.1448 2.65732 13.1384C2.67016 12.5158 3.08739 11.2962 5.15422 11.2962Z" fill="#FF5A00"/>
</g>
</g>
<defs>
<clipPath id="clip0_38577_369823">
<rect width="165" height="22" fill="white"/>
</clipPath>
</defs>
</svg>
