<?xml version="1.0" encoding="UTF-8" standalone="no"?><svg viewBox="0 0 59 16" fill="none" height="16" width="59" xmlns="http://www.w3.org/2000/svg">
  <path d="M3.239 12.575C1.988 12.575 0 12.294 0 11.139 0 10.638.372 10.266.89 10.266 1.16 10.266 1.369 10.373 1.622 10.497 2.005 10.688 2.484 10.931 3.447 10.931 4.596 10.931 5.25 10.576 5.25 9.939 5.25 8.311.152 9.432.152 6.126.152 4.346 1.51 3.247 4.056 3.247 5.12 3.247 6.81 3.445 6.81 4.577 6.81 5.089 6.438 5.45 5.926 5.45 5.672 5.45 5.503 5.365 5.306 5.258 5.008 5.101 4.636 4.909 3.791 4.909 2.659 4.909 2.056 5.247 2.056 5.867 2.056 7.726 7.182 6.391 7.182 9.736 7.176 11.449 5.74 12.575 3.239 12.575ZM17.856 12.575C17.338 12.575 16.921 12.164 16.921 11.64V6.74L14.364 10.463C14.172 10.739 13.857 10.88 13.569 10.88 13.282 10.88 12.967 10.739 12.775 10.463L10.218 6.74V11.64C10.218 12.159 9.807 12.575 9.283 12.575 8.765 12.575 8.348 12.164 8.348 11.64V4.177C8.348 3.704 8.686 3.242 9.333 3.242 9.79 3.242 10.162 3.467 10.415 3.839L13.598 8.469 16.746 3.839C17 3.467 17.343 3.242 17.794 3.242 18.442 3.242 18.78 3.698 18.78 4.177V11.64C18.791 12.159 18.38 12.575 17.856 12.575ZM20.576 12.575C20.041 12.575 19.478 12.018 19.788 11.353L23.342 3.76C23.505 3.411 23.872 3.242 24.232 3.242 24.598 3.242 24.959 3.411 25.122 3.76L28.631 11.252C28.947 11.922 28.412 12.57 27.781 12.57 27.432 12.57 27.099 12.384 26.941 12.04L26.142 10.333H22.176L21.359 12.085C21.207 12.406 20.898 12.575 20.576 12.575ZM25.454 8.762 24.159 5.974 22.863 8.762H25.454ZM30.552 12.575C30.034 12.575 29.617 12.164 29.617 11.64V4.306C29.617 3.788 30.028 3.371 30.552 3.371L33.881 3.377C36.044 3.383 37.306 4.52 37.306 6.368 37.306 7.725 36.573 8.706 35.436 9.156L36.895 11.066C37.03 11.24 37.092 11.438 37.086 11.652 37.086 12.198 36.709 12.581 36.151 12.564 35.852 12.558 35.593 12.44 35.413 12.198L33.301 9.432H31.487V11.629C31.481 12.159 31.07 12.575 30.552 12.575ZM33.701 7.844C34.839 7.844 35.436 7.376 35.436 6.481 35.436 5.585 34.833 5.118 33.701 5.118H31.481V7.844H33.701ZM40.939 5.185H38.663C38.162 5.185 37.762 4.785 37.762 4.284 37.762 3.783 38.162 3.383 38.663 3.383H45.085C45.586 3.383 45.986 3.783 45.986 4.284 45.986 4.785 45.586 5.185 45.085 5.185H42.809V11.635C42.809 12.153 42.398 12.57 41.874 12.57 41.35 12.57 40.939 12.158 40.939 11.635V5.185Z" fill="#fff"></path>
  <path d="M53.6495 8.49718L51.4978 8.48028L50.5346 3.2193L54.686 3.24746L53.6495 8.49718Z" fill="#fff"></path>
  <path d="M53.6495 8.49719L51.4978 8.48028L50.5346 3.2193L54.686 3.24747L53.6495 8.49719ZM52.5455 12.6147C51.7119 12.6147 51.0416 11.9388 51.0416 11.1051C51.0416 10.2715 51.7175 9.6012 52.5512 9.6012C53.3848 9.6012 54.0551 10.2771 54.0551 11.1108C54.0551 11.1164 54.0551 11.122 54.0551 11.122C54.0495 11.9501 53.3735 12.6147 52.5455 12.6147ZM52.5793 1C49.4588 1.02816 46.9409 3.56853 46.9466 6.68907C46.9466 10.7953 52.5793 16 52.5793 16C52.906 15.7071 58.2121 10.8179 58.2121 6.68907C58.2177 3.56853 55.6999 1.02253 52.5793 1Z" fill="#FF5A00"></path>
  <path d="M52.5455 12.6091C51.7119 12.6091 51.0416 11.9275 51.0416 11.0995C51.0416 10.2659 51.7231 9.59558 52.5512 9.59558C53.3848 9.59558 54.0551 10.2771 54.0551 11.1052C54.0551 11.1108 54.0551 11.1108 54.0551 11.1164C54.0495 11.9501 53.3735 12.6147 52.5455 12.6091Z" fill="#fff"></path>
</svg>