<?xml version="1.0" encoding="UTF-8" standalone="no"?><svg fill="none" height="112" width="112" xmlns="http://www.w3.org/2000/svg">
  <path d="M88.8902 80.2c-.63-9.68-3.45-19.28-9.61-26.93.27-3.21.08-6.53-.65-9.86-3.41-15.52-17.45-23.04-30.55-16.26-.82.43-1.63.9-2.42 1.41-11.01 5.32-19.26 15.61-17.22 30.38.49 3.54 1.58 6.66 3.13 9.34-.13.15-.26.3001-.39.4401-5.91 6.61-16 15.6199-17.25 27.6399-.52 4.98 3.49 9.29 8.5 9.29h42.5c13.83 0 24.86-11.6599 23.96-25.4599V80.2Z" fill="#FABE00"></path>
  <path d="M53.9804 84.21c-3.82 5-8.17 9.36-13.72 12.44-4.2 2.33-8.8 3.86-13.51 4.77-2.61.5-5.26.82-7.91.98-1.22.07-5.7.55-6.38.1-1.72-1.14-.96-2.89-.67-4.8 1.72-11.53 9.81-23.31 22.06-25.22.75-.12.91-1.26.5-1.77-6.35-7.8-9.21-17.42-5.74-27.17 2.73-7.66 8.65-12.61 15.51-16.49 6.86-3.88 14.49-5.96 22.07-1.99 7.58 3.97 11.84 12.93 12.39 21.44.17 2.57-.33 4.35.8 6.5.74 1.41 1.77 2.68 2.51 4.12 1.59 3.1 2.72 6.43 3.42 9.84 1.63 7.94.64 16.54-4.39 23.12-8.74 11.43-25.15 13.31-38.46 13.41-.94 0-1.02 1.98.05 1.97 13.39-.1 29.25-2.09 38.53-12.95 6.06-7.09 7.53-16.67 5.86-25.64-.76-4.08-2.15-8.09-4.13-11.73-.69-1.28-2.19-2.76-2.64-4.1-.58-1.72.01-4.85-.21-6.75-.32-2.64-.91-5.23-1.84-7.72-2.53-6.74-7.62-12.54-14.6-14.77-8.22-2.63-15.69.76-22.64 5.03-6.95 4.26-12.41 10.77-14.39 18.78-2.44 9.87.57 18.97 6.87 26.7l.5-1.77c-15.76 2.46-23.37 18.72-24.03003 33.04-.01.3.21003.84.58003.85 18.02.65 33.65-4.48 44.73-18.97.63-.83-.3-2.26-1.1-1.22l-.02-.03Z" fill="#FCDE80"></path>
  <path d="M88.1699 12.46c-1.14-2.32-5.37-2.78996-5.55-5.48996-.1-1.54-1.94.04-1.87 1.04.03.43.11.82.24 1.18.62 4.15996.9 8.31996.88 12.51996-.19.09-.38.2-.54.31-.9.61-1.57 1.51-1.93 2.54-.15.44-.19.93.11 1.28-.04.18-.06.36-.03.54.08.43.35.69.81.6.06-.01.12-.04.18-.06.1.02.22.03.37-.02.04-.01.08-.03.12-.05.23.12.55.1.77-.03.94-.54 1.67-1.41 2.04-2.43.16-.45.29-1.01.26-1.54.01-.07.03-.13.04-.2.05-.49-.1-.98-.48-1.08.05-3.33-.1-6.64-.44-9.94h.01c1.88 1.17 4.82 2.63 3.35 5.44-.72 1.39.61 2.2 1.35.78.89-1.71 1.19-3.61.31-5.4v.01ZM99.2802 34.8901c-.83-1.89-3.86-3.98-3.18-6.25.5-1.65-1.26-1.45-1.65-.15-.02.08-.04.16-.06.23-.13.19-.23.4-.26.62-.44 3.11-.79 6.23-1.01 9.36-.1 1.44-.26 2.86-.16 4.24-.03 0-.05.01-.08.02-1.74-.17-3.39.54-4.23 2.22-.85 1.68-.46 3.78 1.61 4.17 1.7.32 3.89-.39 4.81-1.91.56-.92.58-1.76.28-2.48.13-.35.18-.71.04-.98-1.17-2.24-.45-5.61-.25-8 .07-.83.16-1.65.25-2.48 1.17 1.49 3.13 3.4 2.31 5.03-.71 1.4.63 2.21 1.35.78.74-1.46.92-2.89.24-4.43l-.01.01Zm-6.56 12.03c-.43.09-.87.14-1.31.09-.52-.06-1.69-.53-1.3-1.28.3-.58 1.29-.52 2.05-.39.34.18.68.37.97.62.15.13.26.27.39.42.05.06.07.15.1.22-.12.04-.33.16-.39.18-.16.06-.34.1-.51.14ZM54.96 45.1399c0-1.25.2-2.9.83-4.02.4-.71 1.05-1.75 2.01-1.67 1.02.09 1.51.87 2.01 1.67.66 1.03.93 2.3 1.15 3.48.25 1.32.2 2.75.05 4.08-.13 1.08-.54 2.56-1.31 3.4-.53.59-1.41 1.04-2.19.57-.91-.55-1.43-1.64-1.7-2.61-.14-.5-.23-1-.29-1.51-.14-.38-.25-.78-.31-1.19-.18-.72-.27-1.45-.24-2.19l-.01-.01ZM58.9402 33.23c-2.51.28-4.8.9-6.85 2.42-1.22.91.86 1.92 1.8 1.22 1.53-1.14 3.27-1.59 5.14-1.79 1.51-.17 1.44-2.01-.09-1.84v-.01ZM76.0402 45.14c0-1.25-.2-2.9-.83-4.02-.4-.71-1.05-1.75-2.01-1.67-1.02.09-1.51.87-2.01 1.67-.66 1.03-.93 2.3-1.15 3.48-.25 1.32-.2 2.75-.05 4.08.13 1.08.54 2.56 1.31 3.4.53.59 1.41 1.04 2.19.57.91-.55 1.43-1.64 1.7-2.61.14-.5.23-1 .29-1.51.14-.38.25-.78.31-1.19.18-.72.27-1.45.24-2.19l.01-.01ZM71.74 35.05c2.01.22 3.8001.67 5.4401 1.9.96.71 2.8999-.47 1.6699-1.39-1.94-1.44-4.1799-2.06-6.5499-2.32-1.38-.15-2.17 1.63-.57 1.81h.0099Z" fill="#001F2F"></path>
  <path d="M80.6497 47.24c-4.32-.21-8.64-.74-12.91-1.41-1.42-.45-2.67.22-3.6 1.25-.55.56-.99 1.26-1.28 2.04-.06.14-.11.28-.15.41-.89 2.64-1.27 6.7.57 9.09.3.39.62.67.96.87 1.3.96 2.65 1.83 4.08 2.58.95.5 1.88.94 2.97.97 1.88.05 3.84-1.09 4.89-2.66.46-.7.93-1.73 1.22-2.81.79-.18 1.58-.36 2.37-.53 4.35-.97 6.58-9.53.88-9.81v.01Z" fill="#FF5A00"></path>
  <path d="M36.7299 91c-4.91 3.38-12.44 4.34-18.29 4.43-1 .02-1.2 2-.22 1.99 6.17-.1 13.87-1.05 19.07-4.62.77-.53.38-2.45-.56-1.8ZM34.9402 85.45c-3.57 1.41-7.69 2.81-11.57 2.94-1 .03-1.09 2.03-.1 2 4.02-.13 8.26-1.53 11.97-2.99.89-.35.68-2.33-.3-1.95Z" fill="#FCDE80"></path>
</svg>