<svg width="16" height="16" viewBox="0 0 16 16" fill="none" xmlns="http://www.w3.org/2000/svg">
<path d="M3 6C4.105 6 5 6.895 5 8C5 9.105 4.105 10 3 10C2.95829 10 2.91706 9.99568 2.87598 9.99316C3.67677 12.0415 5.67117 13.5 8 13.5C8.05498 13.5 8.10995 13.4902 8.16992 13.4902L8.16504 13.4951C8.29001 13.85 8.47973 14.18 8.72461 14.46C8.48477 14.4899 8.23995 14.5049 7.99512 14.5049C4.92014 14.5049 2.34983 12.3651 1.6748 9.49512C1.26178 9.1288 1 8.59581 1 8C1 6.895 1.895 6 3 6ZM13.6797 4.83984C14.1997 5.77484 14.5 6.85501 14.5 8C14.5 9.59368 13.9253 11.052 12.9717 12.1816C12.9883 12.2855 13 12.3915 13 12.5C13 13.605 12.105 14.5 11 14.5C9.895 14.5 9 13.605 9 12.5C9 11.395 9.895 10.5 11 10.5C11.5916 10.5 12.1212 10.7581 12.4873 11.166C13.1207 10.2717 13.5 9.17835 13.5 8C13.5 7.18501 13.3199 6.4196 13.0049 5.72461C13.2798 5.47464 13.5097 5.17479 13.6797 4.83984ZM11 11.5C10.45 11.5 10 11.95 10 12.5C10 13.05 10.45 13.5 11 13.5C11.55 13.5 12 13.05 12 12.5C12 11.95 11.55 11.5 11 11.5ZM3 7C2.45 7 2 7.45 2 8C2 8.55 2.45 9 3 9C3.55 9 4 8.55 4 8C4 7.45 3.55 7 3 7ZM11 1.5C12.105 1.5 13 2.395 13 3.5C13 4.605 12.105 5.5 11 5.5C9.895 5.5 9 4.605 9 3.5C9 3.18893 9.07264 2.89532 9.19922 2.63281C8.81111 2.54373 8.41288 2.5 8 2.5C6.065 2.5 4.35988 3.50539 3.37988 5.02539C3.25491 5.0104 3.12998 5 3 5C2.715 5 2.43969 5.04023 2.17969 5.11523C3.24469 2.97523 5.445 1.5 8 1.5C8.67858 1.5 9.32268 1.61336 9.93652 1.80762C10.2447 1.61362 10.6087 1.5 11 1.5ZM11 2.5C10.45 2.5 10 2.95 10 3.5C10 4.05 10.45 4.5 11 4.5C11.55 4.5 12 4.05 12 3.5C12 2.95 11.55 2.5 11 2.5Z" fill="white"/>
</svg>
